# xmcd
#
# Track frame offsets: 
#        150
#        18117
#        35990
#        55404
#        71587
#        86295
#        102706
#        120833
#        137506
#        157246
#        169414
#        186601
#
# Disc length: 2610 seconds
#
# Revision: 0
# Processed by: cddbd v1.5.2PL0 Copyright (c) Steve Scherf et al.
# Submitted via: ExactAudioCopyFreeDBPlugin 1.0
#
DISCID=ab0a300c
DTITLE=Jessica Eve - Next Train Home
DYEAR=2019
DGENRE=Country
TTITLE0=Drivers Seat
TTITLE1=Here Comes the Train
TTITLE2=You're Here
TTITLE3=Give Me Pain
TTITLE4=Next Train Home
TTITLE5=Stop the World
TTITLE6=In Between
TTITLE7=Gravel Road
TTITLE8=It Starts with Me
TTITLE9=Wild Child
TTITLE10=Stronger Woman
TTITLE11=Worn Out Strings
EXTD=
EXTT0=
EXTT1=
EXTT2=
EXTT3=
EXTT4=
EXTT5=
EXTT6=
EXTT7=
EXTT8=
EXTT9=
EXTT10=
EXTT11=
PLAYORDER=
